<?xml version="1.0" standalone="no"?>
<!DOCTYPE svg PUBLIC "-//W3C//DTD SVG 20010904//EN"
 "http://www.w3.org/TR/2001/REC-SVG-20010904/DTD/svg10.dtd">
<svg version="1.0" xmlns="http://www.w3.org/2000/svg"
 width="512.000000pt" height="512.000000pt" viewBox="0 0 512.000000 512.000000" fill="#000"
 preserveAspectRatio="xMidYMid meet">

<g transform="translate(0.000000,512.000000) scale(0.100000,-0.100000)"stroke="none">
<path d="M1600 4839 c-711 -68 -1116 -385 -1264 -989 -61 -252 -61 -245 -61
-1290 0 -871 2 -965 18 -1070 115 -737 468 -1087 1202 -1197 109 -16 208 -18
1070 -18 1039 0 1033 0 1285 61 500 122 807 426 930 921 63 253 63 260 67
1053 l4 725 -23 35 c-33 50 -105 84 -159 75 -53 -9 -115 -64 -129 -113 -5 -21
-10 -146 -10 -280 l0 -243 -67 54 c-88 70 -122 89 -213 122 -153 55 -337 43
-485 -32 -84 -42 -57 -20 -595 -482 -239 -205 -452 -382 -474 -393 -79 -40
-205 -40 -284 2 -21 10 -66 44 -102 74 -194 168 -459 211 -683 113 -31 -14
-263 -164 -514 -332 -327 -220 -458 -303 -464 -294 -9 15 -25 106 -45 249 -17
132 -20 1741 -3 1916 64 654 361 950 1018 1014 57 5 345 10 640 10 l537 0 44
23 c66 33 93 78 88 148 -5 65 -32 109 -82 133 -30 14 -96 16 -598 15 -309 -1
-601 -5 -648 -10z m2570 -2466 c25 -11 116 -80 204 -154 l158 -134 -5 -245
c-5 -250 -18 -364 -56 -512 -118 -455 -417 -677 -981 -728 -86 -8 -399 -10
-1015 -7 -864 4 -893 4 -1004 25 -200 38 -351 94 -468 172 -97 66 -238 221
-217 239 5 5 222 150 481 324 515 345 534 355 645 343 73 -7 131 -34 199 -93
122 -104 225 -153 364 -172 141 -20 305 17 422 94 28 19 258 212 512 429 253
217 470 400 483 407 79 43 197 48 278 12z"/>
<path d="M3890 4789 c-29 -12 -67 -45 -83 -74 -8 -13 -14 -105 -17 -260 l-5
-240 -242 -5 c-224 -5 -244 -6 -269 -26 -98 -72 -96 -204 3 -265 37 -23 46
-24 276 -27 l237 -3 0 -231 c0 -191 3 -236 16 -264 24 -50 68 -77 133 -82 70
-5 115 22 149 88 21 42 22 56 22 267 l0 223 223 0 c211 0 225 1 267 23 66 33
93 78 88 148 -5 65 -32 109 -82 133 -28 13 -73 16 -264 16 l-231 0 -3 238 c-3
229 -4 238 -27 275 -39 64 -124 93 -191 66z"/>
<path d="M1773 3981 c-205 -56 -357 -207 -419 -416 -21 -72 -24 -208 -5 -285
50 -208 221 -381 431 -435 89 -23 241 -17 328 14 187 65 337 230 383 421 18
76 16 212 -5 285 -74 254 -284 420 -546 431 -73 3 -112 0 -167 -15z m263 -329
c52 -27 118 -99 135 -148 30 -88 8 -197 -55 -271 -82 -97 -251 -111 -358 -30
-86 66 -124 196 -89 301 23 68 103 142 181 167 41 14 142 3 186 -19z"/>
</g>
</svg>
