<svg version="1.0" xmlns="http://www.w3.org/2000/svg" width="512.000000ptpx" height="512.000000ptpx" viewBox="0 0 512.000000 512.000000" preserveAspectRatio="xMidYMid meet">

<g transform="translate(0.000000,512.000000) scale(0.100000,-0.100000)" fill="#ffffff">
<path d="M1565 4835 c-694 -78 -1083 -390 -1229 -985 -61 -252 -61 -245 -61&#xA;-1290 0 -871 2 -965 18 -1070 115 -737 468 -1087 1202 -1197 109 -16 208 -18&#xA;1070 -18 1039 0 1033 0 1285 61 500 122 806 426 930 921 66 265 65 250 65&#xA;1303 0 869 -2 965 -18 1070 -65 416 -207 707 -437 895 -189 155 -419 247 -750&#xA;302 -93 15 -209 17 -1030 19 -721 2 -952 -1 -1045 -11z m1941 -316 c654 -64&#xA;950 -360 1014 -1018 5 -57 10 -303 10 -547 l0 -445 -67 54 c-88 70 -122 89&#xA;-213 122 -153 55 -337 43 -485 -32 -84 -42 -57 -20 -595 -482 -239 -205 -451&#xA;-381 -472 -392 -75 -38 -209 -40 -281 -3 -17 9 -66 45 -109 80 -43 35 -106 78&#xA;-139 95 -168 84 -373 90 -541 16 -32 -14 -263 -164 -514 -333 -338 -226 -458&#xA;-303 -465 -293 -10 17 -36 161 -49 274 -6 54 -10 436 -10 945 0 906 4 1004 49&#xA;1195 100 420 338 647 771 734 58 12 143 25 190 30 128 13 1775 13 1906 0z&#xA;m664 -2146 c25 -11 116 -80 204 -154 l158 -134 -5 -245 c-5 -250 -18 -364 -56&#xA;-512 -118 -455 -417 -677 -981 -728 -86 -8 -399 -10 -1015 -7 -864 4 -893 4&#xA;-1004 25 -200 38 -351 94 -468 172 -97 66 -238 221 -217 239 5 5 222 150 482&#xA;324 515 345 534 355 644 343 73 -7 131 -34 199 -93 124 -106 229 -155 369&#xA;-172 141 -18 295 15 407 88 32 21 266 216 520 434 254 217 472 401 485 408 79&#xA;43 197 48 278 12z"/>
<path d="M1795 3985 c-267 -59 -457 -292 -459 -565 0 -47 6 -110 13 -140 50&#xA;-208 221 -381 431 -435 89 -23 241 -17 328 14 144 50 271 161 335 294 46 95&#xA;61 163 61 267 -3 369 -349 645 -709 565z m241 -333 c52 -27 118 -99 135 -148&#xA;48 -140 -37 -308 -174 -345 -23 -6 -70 -9 -104 -6 -138 11 -236 119 -236 262&#xA;-1 118 74 217 193 256 41 14 142 3 186 -19z"/>
</g>
</svg>